<svg xmlns="http://www.w3.org/2000/svg" width="1200" height="630" viewBox="0 0 1200 630" role="img" aria-labelledby="title desc">
  <title id="title">Car Dealer Tracker</title>
  <desc id="desc">Dealer inventory and profit app preview image</desc>
  <rect width="1200" height="630" fill="#f5f5fa"/>
  <rect x="76" y="82" width="1048" height="466" rx="36" fill="#ffffff"/>
  <rect x="76" y="82" width="1048" height="466" rx="36" fill="none" stroke="#dfe5f0" stroke-width="2"/>
  <rect x="126" y="132" width="92" height="92" rx="22" fill="#17478c"/>
  <path d="M150 181h11l8-22h38l8 22h9v13h-74v-13Zm27-22 6 15h-22l5-15h11Zm-18 43a12 12 0 1 0 0 24 12 12 0 0 0 0-24Zm50 0a12 12 0 1 0 0 24 12 12 0 0 0 0-24Z" fill="#fff"/>
  <text x="126" y="292" fill="#061842" font-family="-apple-system, BlinkMacSystemFont, Segoe UI, sans-serif" font-size="76" font-weight="900">Car Dealer Tracker</text>
  <text x="132" y="358" fill="#243552" font-family="-apple-system, BlinkMacSystemFont, Segoe UI, sans-serif" font-size="30" font-weight="600">Dealer inventory, expenses, sales, clients, reports, and real profit in one app.</text>
  <rect x="132" y="414" width="238" height="64" rx="18" fill="#0a73f0"/>
  <text x="174" y="456" fill="#fff" font-family="-apple-system, BlinkMacSystemFont, Segoe UI, sans-serif" font-size="24" font-weight="800">App Store</text>
  <rect x="760" y="122" width="156" height="340" rx="38" fill="#070707"/>
  <rect x="772" y="136" width="132" height="316" rx="30" fill="#ffffff"/>
  <rect x="790" y="180" width="96" height="26" rx="8" fill="#eaf0f8"/>
  <rect x="790" y="222" width="96" height="68" rx="14" fill="#17478c"/>
  <rect x="790" y="308" width="42" height="42" rx="12" fill="#29ab63"/>
  <rect x="844" y="308" width="42" height="42" rx="12" fill="#fa8c38"/>
  <rect x="790" y="370" width="96" height="20" rx="8" fill="#dfe5f0"/>
  <rect x="948" y="170" width="130" height="284" rx="34" fill="#070707"/>
  <rect x="958" y="182" width="110" height="260" rx="26" fill="#ffffff"/>
  <rect x="974" y="218" width="78" height="24" rx="8" fill="#eaf0f8"/>
  <rect x="974" y="262" width="78" height="42" rx="10" fill="#2e85eb"/>
  <rect x="974" y="320" width="78" height="18" rx="8" fill="#dfe5f0"/>
  <rect x="974" y="354" width="78" height="18" rx="8" fill="#dfe5f0"/>
</svg>
